<mxfile host="app.diagrams.net" modified="2023-11-19T06:20:43.193Z" agent="Mozilla/5.0 (Macintosh; Intel Mac OS X 10_15_7) AppleWebKit/537.36 (KHTML, like Gecko) Chrome/118.0.0.0 Safari/537.36" etag="kwfKLjiS23m1LFz71-9n" version="22.1.3" type="github">
  <diagram name="第 1 页" id="Ah_aQdF748rMCLH3QrIh">
    <mxGraphModel dx="2261" dy="790" grid="1" gridSize="10" guides="1" tooltips="1" connect="1" arrows="1" fold="1" page="1" pageScale="1" pageWidth="827" pageHeight="1169" math="0" shadow="0">
      <root>
        <mxCell id="0" />
        <mxCell id="1" parent="0" />
        <mxCell id="CQa66I4Z4G5CtVGXDreY-2" value="" style="rounded=0;whiteSpace=wrap;html=1;" parent="1" vertex="1">
          <mxGeometry x="840" y="470" width="450" height="710" as="geometry" />
        </mxCell>
        <mxCell id="CQa66I4Z4G5CtVGXDreY-94" value="" style="rounded=0;whiteSpace=wrap;html=1;" parent="1" vertex="1">
          <mxGeometry x="870" y="480" width="140" height="190" as="geometry" />
        </mxCell>
        <mxCell id="CQa66I4Z4G5CtVGXDreY-63" value="" style="rounded=0;whiteSpace=wrap;html=1;" parent="1" vertex="1">
          <mxGeometry x="294" y="690" width="446" height="240" as="geometry" />
        </mxCell>
        <mxCell id="CQa66I4Z4G5CtVGXDreY-14" value="" style="rounded=0;whiteSpace=wrap;html=1;" parent="1" vertex="1">
          <mxGeometry x="60" y="690" width="230" height="240" as="geometry" />
        </mxCell>
        <mxCell id="CQa66I4Z4G5CtVGXDreY-29" value="" style="rounded=0;whiteSpace=wrap;html=1;" parent="1" vertex="1">
          <mxGeometry x="180" y="725" width="100" height="190" as="geometry" />
        </mxCell>
        <mxCell id="CQa66I4Z4G5CtVGXDreY-3" value="提示工程" style="text;html=1;align=center;verticalAlign=middle;resizable=0;points=[];autosize=1;strokeColor=none;fillColor=none;" parent="1" vertex="1">
          <mxGeometry x="905" y="490" width="70" height="30" as="geometry" />
        </mxCell>
        <mxCell id="CQa66I4Z4G5CtVGXDreY-4" value="指令调优" style="rounded=0;whiteSpace=wrap;html=1;" parent="1" vertex="1">
          <mxGeometry x="877.5" y="520" width="125" height="40" as="geometry" />
        </mxCell>
        <mxCell id="CQa66I4Z4G5CtVGXDreY-5" value="提示攻击与防范" style="rounded=0;whiteSpace=wrap;html=1;" parent="1" vertex="1">
          <mxGeometry x="877.5" y="570" width="120" height="40" as="geometry" />
        </mxCell>
        <mxCell id="CQa66I4Z4G5CtVGXDreY-7" value="" style="rounded=0;whiteSpace=wrap;html=1;" parent="1" vertex="1">
          <mxGeometry x="460" y="530" width="120" height="150" as="geometry" />
        </mxCell>
        <mxCell id="CQa66I4Z4G5CtVGXDreY-9" value="&lt;b&gt;编程辅助应用&lt;/b&gt;" style="text;html=1;align=center;verticalAlign=middle;resizable=0;points=[];autosize=1;strokeColor=none;fillColor=none;" parent="1" vertex="1">
          <mxGeometry x="460" y="540" width="100" height="30" as="geometry" />
        </mxCell>
        <mxCell id="CQa66I4Z4G5CtVGXDreY-11" value="GPT-4" style="rounded=0;whiteSpace=wrap;html=1;" parent="1" vertex="1">
          <mxGeometry x="192.5" y="820" width="75" height="30" as="geometry" />
        </mxCell>
        <mxCell id="CQa66I4Z4G5CtVGXDreY-15" value="LLM" style="text;html=1;align=center;verticalAlign=middle;resizable=0;points=[];autosize=1;strokeColor=none;fillColor=none;" parent="1" vertex="1">
          <mxGeometry x="165" y="695" width="50" height="30" as="geometry" />
        </mxCell>
        <mxCell id="CQa66I4Z4G5CtVGXDreY-16" value="" style="rounded=0;whiteSpace=wrap;html=1;" parent="1" vertex="1">
          <mxGeometry x="310" y="700" width="430" height="60" as="geometry" />
        </mxCell>
        <mxCell id="CQa66I4Z4G5CtVGXDreY-19" value="应用开发组件" style="text;html=1;align=center;verticalAlign=middle;resizable=0;points=[];autosize=1;strokeColor=none;fillColor=none;" parent="1" vertex="1">
          <mxGeometry x="310" y="715" width="100" height="30" as="geometry" />
        </mxCell>
        <mxCell id="CQa66I4Z4G5CtVGXDreY-20" value="langchain" style="rounded=0;whiteSpace=wrap;html=1;" parent="1" vertex="1">
          <mxGeometry x="410" y="710" width="80" height="40" as="geometry" />
        </mxCell>
        <mxCell id="CQa66I4Z4G5CtVGXDreY-21" value="semantic kernel" style="rounded=0;whiteSpace=wrap;html=1;" parent="1" vertex="1">
          <mxGeometry x="495" y="710" width="115" height="40" as="geometry" />
        </mxCell>
        <mxCell id="CQa66I4Z4G5CtVGXDreY-24" value="" style="rounded=0;whiteSpace=wrap;html=1;" parent="1" vertex="1">
          <mxGeometry x="310" y="780" width="180" height="140" as="geometry" />
        </mxCell>
        <mxCell id="CQa66I4Z4G5CtVGXDreY-25" value="模型聚合&amp;amp;训练组件" style="text;html=1;align=center;verticalAlign=middle;resizable=0;points=[];autosize=1;strokeColor=none;fillColor=none;" parent="1" vertex="1">
          <mxGeometry x="320" y="790" width="130" height="30" as="geometry" />
        </mxCell>
        <mxCell id="CQa66I4Z4G5CtVGXDreY-26" value="hugging face" style="rounded=0;whiteSpace=wrap;html=1;" parent="1" vertex="1">
          <mxGeometry x="320" y="820" width="120" height="40" as="geometry" />
        </mxCell>
        <mxCell id="CQa66I4Z4G5CtVGXDreY-27" value="Bard" style="rounded=0;whiteSpace=wrap;html=1;" parent="1" vertex="1">
          <mxGeometry x="192.5" y="765" width="75" height="30" as="geometry" />
        </mxCell>
        <mxCell id="CQa66I4Z4G5CtVGXDreY-28" value="Claude" style="rounded=0;whiteSpace=wrap;html=1;" parent="1" vertex="1">
          <mxGeometry x="192.5" y="880" width="75" height="30" as="geometry" />
        </mxCell>
        <mxCell id="CQa66I4Z4G5CtVGXDreY-30" value="闭源" style="text;html=1;align=center;verticalAlign=middle;resizable=0;points=[];autosize=1;strokeColor=none;fillColor=none;" parent="1" vertex="1">
          <mxGeometry x="205" y="725" width="50" height="30" as="geometry" />
        </mxCell>
        <mxCell id="CQa66I4Z4G5CtVGXDreY-31" value="AI生态全景图：建立自己的AI信息源，动态更新" style="rounded=0;whiteSpace=wrap;html=1;fillColor=#f8cecc;strokeColor=#b85450;" parent="1" vertex="1">
          <mxGeometry y="400" width="800" height="40" as="geometry" />
        </mxCell>
        <mxCell id="CQa66I4Z4G5CtVGXDreY-33" value="" style="rounded=0;whiteSpace=wrap;html=1;" parent="1" vertex="1">
          <mxGeometry x="65" y="725" width="100" height="190" as="geometry" />
        </mxCell>
        <mxCell id="CQa66I4Z4G5CtVGXDreY-34" value="开源" style="text;html=1;align=center;verticalAlign=middle;resizable=0;points=[];autosize=1;strokeColor=none;fillColor=none;" parent="1" vertex="1">
          <mxGeometry x="90" y="730" width="50" height="30" as="geometry" />
        </mxCell>
        <mxCell id="CQa66I4Z4G5CtVGXDreY-35" value="stable diffusion" style="rounded=0;whiteSpace=wrap;html=1;" parent="1" vertex="1">
          <mxGeometry x="77.5" y="775" width="75" height="30" as="geometry" />
        </mxCell>
        <mxCell id="CQa66I4Z4G5CtVGXDreY-36" value="LLAMA3" style="rounded=0;whiteSpace=wrap;html=1;" parent="1" vertex="1">
          <mxGeometry x="77.5" y="820" width="75" height="30" as="geometry" />
        </mxCell>
        <mxCell id="CQa66I4Z4G5CtVGXDreY-37" value="CHATGLM3" style="rounded=0;whiteSpace=wrap;html=1;" parent="1" vertex="1">
          <mxGeometry x="77.5" y="870" width="75" height="30" as="geometry" />
        </mxCell>
        <mxCell id="CQa66I4Z4G5CtVGXDreY-38" value="" style="rounded=0;whiteSpace=wrap;html=1;" parent="1" vertex="1">
          <mxGeometry x="60" y="530" width="140" height="150" as="geometry" />
        </mxCell>
        <mxCell id="CQa66I4Z4G5CtVGXDreY-39" value="&lt;b&gt;垂直行业应用&lt;/b&gt;" style="text;html=1;align=center;verticalAlign=middle;resizable=0;points=[];autosize=1;strokeColor=none;fillColor=none;" parent="1" vertex="1">
          <mxGeometry x="55" y="540" width="100" height="30" as="geometry" />
        </mxCell>
        <mxCell id="CQa66I4Z4G5CtVGXDreY-40" value="教育：call annie" style="text;html=1;align=center;verticalAlign=middle;resizable=0;points=[];autosize=1;strokeColor=none;fillColor=none;" parent="1" vertex="1">
          <mxGeometry x="60" y="570" width="110" height="30" as="geometry" />
        </mxCell>
        <mxCell id="CQa66I4Z4G5CtVGXDreY-41" value="金融：fingpt" style="text;html=1;align=center;verticalAlign=middle;resizable=0;points=[];autosize=1;strokeColor=none;fillColor=none;" parent="1" vertex="1">
          <mxGeometry x="60" y="590" width="90" height="30" as="geometry" />
        </mxCell>
        <mxCell id="CQa66I4Z4G5CtVGXDreY-42" value="copilot" style="text;html=1;align=center;verticalAlign=middle;resizable=0;points=[];autosize=1;strokeColor=none;fillColor=none;" parent="1" vertex="1">
          <mxGeometry x="470" y="570" width="60" height="30" as="geometry" />
        </mxCell>
        <mxCell id="CQa66I4Z4G5CtVGXDreY-43" value="code interpreter" style="text;html=1;align=center;verticalAlign=middle;resizable=0;points=[];autosize=1;strokeColor=none;fillColor=none;" parent="1" vertex="1">
          <mxGeometry x="455" y="590" width="110" height="30" as="geometry" />
        </mxCell>
        <mxCell id="CQa66I4Z4G5CtVGXDreY-44" value="" style="rounded=0;whiteSpace=wrap;html=1;" parent="1" vertex="1">
          <mxGeometry x="212.5" y="530" width="237.5" height="150" as="geometry" />
        </mxCell>
        <mxCell id="CQa66I4Z4G5CtVGXDreY-45" value="&lt;b&gt;通用工具应用&lt;/b&gt;" style="text;html=1;align=center;verticalAlign=middle;resizable=0;points=[];autosize=1;strokeColor=none;fillColor=none;" parent="1" vertex="1">
          <mxGeometry x="212.5" y="540" width="100" height="30" as="geometry" />
        </mxCell>
        <mxCell id="CQa66I4Z4G5CtVGXDreY-47" value="画图：dall-e3 、midjourney" style="text;html=1;align=center;verticalAlign=middle;resizable=0;points=[];autosize=1;strokeColor=none;fillColor=none;" parent="1" vertex="1">
          <mxGeometry x="207.5" y="570" width="170" height="30" as="geometry" />
        </mxCell>
        <mxCell id="CQa66I4Z4G5CtVGXDreY-50" value="copilot" style="text;html=1;align=center;verticalAlign=middle;resizable=0;points=[];autosize=1;strokeColor=none;fillColor=none;" parent="1" vertex="1">
          <mxGeometry x="650" y="630" width="60" height="30" as="geometry" />
        </mxCell>
        <mxCell id="CQa66I4Z4G5CtVGXDreY-51" value="文本创作：notion AI" style="text;html=1;align=center;verticalAlign=middle;resizable=0;points=[];autosize=1;strokeColor=none;fillColor=none;" parent="1" vertex="1">
          <mxGeometry x="207.5" y="555" width="130" height="30" as="geometry" />
        </mxCell>
        <mxCell id="CQa66I4Z4G5CtVGXDreY-52" value="视频：imagen、runway" style="text;html=1;align=center;verticalAlign=middle;resizable=0;points=[];autosize=1;strokeColor=none;fillColor=none;" parent="1" vertex="1">
          <mxGeometry x="207.5" y="590" width="150" height="30" as="geometry" />
        </mxCell>
        <mxCell id="CQa66I4Z4G5CtVGXDreY-53" value="聊天机器人：chatgpt4&amp;nbsp; gpts" style="text;html=1;align=center;verticalAlign=middle;resizable=0;points=[];autosize=1;strokeColor=none;fillColor=none;" parent="1" vertex="1">
          <mxGeometry x="207.5" y="610" width="170" height="30" as="geometry" />
        </mxCell>
        <mxCell id="CQa66I4Z4G5CtVGXDreY-54" value="" style="rounded=0;whiteSpace=wrap;html=1;" parent="1" vertex="1">
          <mxGeometry x="600" y="530" width="200" height="150" as="geometry" />
        </mxCell>
        <mxCell id="CQa66I4Z4G5CtVGXDreY-57" value="&lt;b&gt;智能硬件&lt;/b&gt;" style="text;html=1;align=center;verticalAlign=middle;resizable=0;points=[];autosize=1;strokeColor=none;fillColor=none;" parent="1" vertex="1">
          <mxGeometry x="610" y="540" width="70" height="30" as="geometry" />
        </mxCell>
        <mxCell id="CQa66I4Z4G5CtVGXDreY-58" value="汽车: FSD" style="text;html=1;align=center;verticalAlign=middle;resizable=0;points=[];autosize=1;strokeColor=none;fillColor=none;" parent="1" vertex="1">
          <mxGeometry x="610" y="570" width="80" height="30" as="geometry" />
        </mxCell>
        <mxCell id="CQa66I4Z4G5CtVGXDreY-61" value="tensorflow" style="rounded=0;whiteSpace=wrap;html=1;" parent="1" vertex="1">
          <mxGeometry x="320" y="870" width="60" height="40" as="geometry" />
        </mxCell>
        <mxCell id="CQa66I4Z4G5CtVGXDreY-62" value="pytorch" style="rounded=0;whiteSpace=wrap;html=1;" parent="1" vertex="1">
          <mxGeometry x="390" y="870" width="50" height="40" as="geometry" />
        </mxCell>
        <mxCell id="CQa66I4Z4G5CtVGXDreY-65" value="应用层" style="rounded=0;whiteSpace=wrap;html=1;fillColor=#e1d5e7;strokeColor=#9673a6;" parent="1" vertex="1">
          <mxGeometry x="-10" y="460" width="50" height="220" as="geometry" />
        </mxCell>
        <mxCell id="CQa66I4Z4G5CtVGXDreY-66" value="模型层" style="rounded=0;whiteSpace=wrap;html=1;fillColor=#e1d5e7;strokeColor=#9673a6;" parent="1" vertex="1">
          <mxGeometry x="-10" y="695" width="50" height="235" as="geometry" />
        </mxCell>
        <mxCell id="CQa66I4Z4G5CtVGXDreY-67" value="组件层" style="rounded=0;whiteSpace=wrap;html=1;fillColor=#e1d5e7;strokeColor=#9673a6;" parent="1" vertex="1">
          <mxGeometry x="750" y="692.5" width="50" height="235" as="geometry" />
        </mxCell>
        <mxCell id="CQa66I4Z4G5CtVGXDreY-69" value="" style="rounded=0;whiteSpace=wrap;html=1;" parent="1" vertex="1">
          <mxGeometry x="530" y="780" width="190" height="140" as="geometry" />
        </mxCell>
        <mxCell id="CQa66I4Z4G5CtVGXDreY-70" value="模型评估组件" style="text;html=1;align=center;verticalAlign=middle;resizable=0;points=[];autosize=1;strokeColor=none;fillColor=none;" parent="1" vertex="1">
          <mxGeometry x="580" y="790" width="100" height="30" as="geometry" />
        </mxCell>
        <mxCell id="CQa66I4Z4G5CtVGXDreY-71" value="statsig" style="rounded=0;whiteSpace=wrap;html=1;" parent="1" vertex="1">
          <mxGeometry x="540" y="820" width="70" height="40" as="geometry" />
        </mxCell>
        <mxCell id="CQa66I4Z4G5CtVGXDreY-72" value="comet" style="rounded=0;whiteSpace=wrap;html=1;" parent="1" vertex="1">
          <mxGeometry x="630" y="820" width="70" height="40" as="geometry" />
        </mxCell>
        <mxCell id="CQa66I4Z4G5CtVGXDreY-73" value="mlflow" style="rounded=0;whiteSpace=wrap;html=1;" parent="1" vertex="1">
          <mxGeometry x="540" y="875" width="160" height="40" as="geometry" />
        </mxCell>
        <mxCell id="CQa66I4Z4G5CtVGXDreY-74" value="" style="rounded=0;whiteSpace=wrap;html=1;" parent="1" vertex="1">
          <mxGeometry x="60" y="460" width="745" height="50" as="geometry" />
        </mxCell>
        <mxCell id="CQa66I4Z4G5CtVGXDreY-75" value="&lt;b&gt;应用聚合&lt;/b&gt;" style="text;html=1;align=center;verticalAlign=middle;resizable=0;points=[];autosize=1;strokeColor=none;fillColor=none;" parent="1" vertex="1">
          <mxGeometry x="75" y="470" width="70" height="30" as="geometry" />
        </mxCell>
        <mxCell id="CQa66I4Z4G5CtVGXDreY-76" value="flowgpt" style="rounded=0;whiteSpace=wrap;html=1;" parent="1" vertex="1">
          <mxGeometry x="152.5" y="470" width="75" height="30" as="geometry" />
        </mxCell>
        <mxCell id="CQa66I4Z4G5CtVGXDreY-78" value="GPT Store" style="rounded=0;whiteSpace=wrap;html=1;" parent="1" vertex="1">
          <mxGeometry x="362.5" y="470" width="75" height="30" as="geometry" />
        </mxCell>
        <mxCell id="CQa66I4Z4G5CtVGXDreY-79" value="云服务" style="rounded=0;whiteSpace=wrap;html=1;fillColor=#e1d5e7;strokeColor=#9673a6;" parent="1" vertex="1">
          <mxGeometry x="-10" y="957.5" width="50" height="102.5" as="geometry" />
        </mxCell>
        <mxCell id="CQa66I4Z4G5CtVGXDreY-81" value="" style="rounded=0;whiteSpace=wrap;html=1;" parent="1" vertex="1">
          <mxGeometry x="64" y="957.5" width="736" height="102.5" as="geometry" />
        </mxCell>
        <mxCell id="CQa66I4Z4G5CtVGXDreY-82" value="AWS" style="rounded=0;whiteSpace=wrap;html=1;" parent="1" vertex="1">
          <mxGeometry x="95" y="980" width="95" height="60" as="geometry" />
        </mxCell>
        <mxCell id="CQa66I4Z4G5CtVGXDreY-83" value="AZURE" style="rounded=0;whiteSpace=wrap;html=1;" parent="1" vertex="1">
          <mxGeometry x="224.38" y="978.75" width="116.25" height="60" as="geometry" />
        </mxCell>
        <mxCell id="CQa66I4Z4G5CtVGXDreY-84" value="GCP" style="rounded=0;whiteSpace=wrap;html=1;" parent="1" vertex="1">
          <mxGeometry x="504" y="978.75" width="126" height="60" as="geometry" />
        </mxCell>
        <mxCell id="CQa66I4Z4G5CtVGXDreY-85" value="阿里云" style="rounded=0;whiteSpace=wrap;html=1;" parent="1" vertex="1">
          <mxGeometry x="650" y="980" width="125" height="60" as="geometry" />
        </mxCell>
        <mxCell id="CQa66I4Z4G5CtVGXDreY-86" value="云服务" style="rounded=0;whiteSpace=wrap;html=1;fillColor=#e1d5e7;strokeColor=#9673a6;" parent="1" vertex="1">
          <mxGeometry x="-10" y="1080" width="50" height="102.5" as="geometry" />
        </mxCell>
        <mxCell id="CQa66I4Z4G5CtVGXDreY-87" value="" style="rounded=0;whiteSpace=wrap;html=1;" parent="1" vertex="1">
          <mxGeometry x="64" y="1080" width="736" height="102.5" as="geometry" />
        </mxCell>
        <mxCell id="CQa66I4Z4G5CtVGXDreY-88" value="GPU" style="rounded=0;whiteSpace=wrap;html=1;" parent="1" vertex="1">
          <mxGeometry x="90" y="1101.25" width="110" height="60" as="geometry" />
        </mxCell>
        <mxCell id="CQa66I4Z4G5CtVGXDreY-89" value="TPU" style="rounded=0;whiteSpace=wrap;html=1;" parent="1" vertex="1">
          <mxGeometry x="212.5" y="1100" width="91" height="60" as="geometry" />
        </mxCell>
        <mxCell id="CQa66I4Z4G5CtVGXDreY-90" value="DGX" style="rounded=0;whiteSpace=wrap;html=1;" parent="1" vertex="1">
          <mxGeometry x="362.75" y="980" width="116.25" height="60" as="geometry" />
        </mxCell>
        <mxCell id="CQa66I4Z4G5CtVGXDreY-91" value="CPU" style="rounded=0;whiteSpace=wrap;html=1;" parent="1" vertex="1">
          <mxGeometry x="325" y="1100" width="105" height="60" as="geometry" />
        </mxCell>
        <mxCell id="CQa66I4Z4G5CtVGXDreY-92" value="FPGA" style="rounded=0;whiteSpace=wrap;html=1;" parent="1" vertex="1">
          <mxGeometry x="455" y="1100" width="145" height="60" as="geometry" />
        </mxCell>
        <mxCell id="CQa66I4Z4G5CtVGXDreY-93" value="ASIC" style="rounded=0;whiteSpace=wrap;html=1;" parent="1" vertex="1">
          <mxGeometry x="630" y="1101.25" width="145" height="60" as="geometry" />
        </mxCell>
        <mxCell id="CQa66I4Z4G5CtVGXDreY-96" value="模型调优（FINE-TUNING）" style="rounded=0;whiteSpace=wrap;html=1;verticalAlign=top;" parent="1" vertex="1">
          <mxGeometry x="855" y="780" width="405" height="130" as="geometry" />
        </mxCell>
        <mxCell id="CQa66I4Z4G5CtVGXDreY-97" value="function calling &amp;amp; plugins &amp;amp; tools&amp;nbsp;" style="rounded=0;whiteSpace=wrap;html=1;" parent="1" vertex="1">
          <mxGeometry x="860" y="705" width="125" height="40" as="geometry" />
        </mxCell>
        <mxCell id="CQa66I4Z4G5CtVGXDreY-99" value="机器学习基础知识" style="rounded=0;whiteSpace=wrap;html=1;" parent="1" vertex="1">
          <mxGeometry x="855" y="927.5" width="405" height="40" as="geometry" />
        </mxCell>
        <mxCell id="CQa66I4Z4G5CtVGXDreY-100" value="LARA" style="rounded=0;whiteSpace=wrap;html=1;" parent="1" vertex="1">
          <mxGeometry x="870" y="820" width="85" height="30" as="geometry" />
        </mxCell>
        <mxCell id="CQa66I4Z4G5CtVGXDreY-101" value="P-TUNING" style="rounded=0;whiteSpace=wrap;html=1;" parent="1" vertex="1">
          <mxGeometry x="1100" y="820" width="110" height="30" as="geometry" />
        </mxCell>
        <mxCell id="CQa66I4Z4G5CtVGXDreY-102" value="PROMPT TUNING" style="rounded=0;whiteSpace=wrap;html=1;" parent="1" vertex="1">
          <mxGeometry x="877.5" y="870" width="152.5" height="30" as="geometry" />
        </mxCell>
        <mxCell id="CQa66I4Z4G5CtVGXDreY-103" value="AI知识体系：技术实践不断迭代222" style="rounded=0;whiteSpace=wrap;html=1;fillColor=#f8cecc;strokeColor=#b85450;" parent="1" vertex="1">
          <mxGeometry x="840" y="400" width="530" height="40" as="geometry" />
        </mxCell>
        <mxCell id="CQa66I4Z4G5CtVGXDreY-104" value="" style="rounded=0;whiteSpace=wrap;html=1;" parent="1" vertex="1">
          <mxGeometry x="1040" y="480" width="140" height="190" as="geometry" />
        </mxCell>
        <mxCell id="CQa66I4Z4G5CtVGXDreY-105" value="指令调优" style="rounded=0;whiteSpace=wrap;html=1;" parent="1" vertex="1">
          <mxGeometry x="1470" y="440" width="125" height="40" as="geometry" />
        </mxCell>
        <mxCell id="CQa66I4Z4G5CtVGXDreY-106" value="专用提示GPTs" style="rounded=0;whiteSpace=wrap;html=1;" parent="1" vertex="1">
          <mxGeometry x="880" y="620" width="120" height="40" as="geometry" />
        </mxCell>
        <mxCell id="CQa66I4Z4G5CtVGXDreY-107" value="产品开发" style="text;html=1;align=center;verticalAlign=middle;resizable=0;points=[];autosize=1;strokeColor=none;fillColor=none;" parent="1" vertex="1">
          <mxGeometry x="1070" y="490" width="70" height="30" as="geometry" />
        </mxCell>
        <mxCell id="CQa66I4Z4G5CtVGXDreY-109" value="硬件选型" style="rounded=0;whiteSpace=wrap;html=1;" parent="1" vertex="1">
          <mxGeometry x="855" y="1038.75" width="135" height="60" as="geometry" />
        </mxCell>
        <mxCell id="CQa66I4Z4G5CtVGXDreY-110" value="大模型私有化部署" style="rounded=0;whiteSpace=wrap;html=1;" parent="1" vertex="1">
          <mxGeometry x="1030" y="1040" width="135" height="60" as="geometry" />
        </mxCell>
        <mxCell id="CQa66I4Z4G5CtVGXDreY-111" value="商业模式" style="rounded=0;whiteSpace=wrap;html=1;" parent="1" vertex="1">
          <mxGeometry x="1055" y="520" width="95" height="40" as="geometry" />
        </mxCell>
        <mxCell id="CQa66I4Z4G5CtVGXDreY-112" value="MVP版本开发" style="rounded=0;whiteSpace=wrap;html=1;" parent="1" vertex="1">
          <mxGeometry x="1055" y="570" width="95" height="40" as="geometry" />
        </mxCell>
        <mxCell id="CQa66I4Z4G5CtVGXDreY-113" value="UI交互设计" style="rounded=0;whiteSpace=wrap;html=1;" parent="1" vertex="1">
          <mxGeometry x="1055" y="625" width="95" height="40" as="geometry" />
        </mxCell>
        <mxCell id="CQa66I4Z4G5CtVGXDreY-114" value="openai" style="rounded=0;whiteSpace=wrap;html=1;" parent="1" vertex="1">
          <mxGeometry x="622.5" y="710" width="87.5" height="40" as="geometry" />
        </mxCell>
        <mxCell id="CQa66I4Z4G5CtVGXDreY-115" value="PROMPT TUNING" style="rounded=0;whiteSpace=wrap;html=1;" parent="1" vertex="1">
          <mxGeometry x="985" y="820" width="85" height="30" as="geometry" />
        </mxCell>
        <mxCell id="CQa66I4Z4G5CtVGXDreY-116" value="prefix-tuning" style="rounded=0;whiteSpace=wrap;html=1;" parent="1" vertex="1">
          <mxGeometry x="1060" y="870" width="120" height="30" as="geometry" />
        </mxCell>
        <mxCell id="CQa66I4Z4G5CtVGXDreY-118" value="langchain &amp;amp; sk的使用" style="rounded=0;whiteSpace=wrap;html=1;" parent="1" vertex="1">
          <mxGeometry x="1015" y="705" width="165" height="40" as="geometry" />
        </mxCell>
      </root>
    </mxGraphModel>
  </diagram>
</mxfile>
